<svg width="44" height="44" viewBox="0 0 44 44" fill="none" xmlns="http://www.w3.org/2000/svg">
<path d="M22 0.5C33.8741 0.5 43.5 10.1259 43.5 22C43.5 33.8741 33.8741 43.5 22 43.5C10.1259 43.5 0.5 33.8741 0.5 22C0.5 10.1259 10.1259 0.5 22 0.5Z" fill="#2C2C2C"/>
<path d="M22 0.5C33.8741 0.5 43.5 10.1259 43.5 22C43.5 33.8741 33.8741 43.5 22 43.5C10.1259 43.5 0.5 33.8741 0.5 22C0.5 10.1259 10.1259 0.5 22 0.5Z" stroke="#2C2C2C" stroke-linecap="round"/>
<path d="M29.5 29.5L25.875 25.875M27.8333 21.1667C27.8333 24.8486 24.8486 27.8333 21.1667 27.8333C17.4848 27.8333 14.5 24.8486 14.5 21.1667C14.5 17.4848 17.4848 14.5 21.1667 14.5C24.8486 14.5 27.8333 17.4848 27.8333 21.1667Z" stroke="#F5F5F5" stroke-width="2" stroke-linecap="round" stroke-linejoin="round"/>
</svg>
